<?xml version="1.0" standalone="no"?>
<!DOCTYPE svg PUBLIC "-//W3C//DTD SVG 20010904//EN"
 "http://www.w3.org/TR/2001/REC-SVG-20010904/DTD/svg10.dtd">
<svg version="1.0" xmlns="http://www.w3.org/2000/svg"
 width="316.000000pt" height="316.000000pt" viewBox="0 0 512.000000 512.000000"
 preserveAspectRatio="xMidYMid meet">

<g transform="translate(0.000000,512.000000) scale(0.100000,-0.100000)"
fill="#000000" stroke="none">
<path d="M0 2934 l0 -2185 49 59 c78 94 171 160 271 195 59 20 176 41 188 33
15 -9 2 -46 -16 -46 -21 0 -108 -57 -130 -85 -14 -17 -26 -22 -49 -19 -23 2
-44 -6 -87 -37 -45 -32 -59 -49 -73 -90 -11 -31 -37 -70 -66 -101 -46 -49 -49
-50 -67 -33 -20 18 -20 15 -20 -303 l0 -322 1072 0 1073 0 -35 24 c-38 25 -74
37 -165 56 -33 6 -70 16 -83 21 -12 5 -61 13 -109 19 -55 6 -92 15 -104 26
-11 10 -29 22 -41 28 -11 6 -35 28 -51 49 -43 52 -30 61 101 68 113 6 187 26
267 74 42 24 54 46 55 95 0 14 12 38 25 55 24 29 26 29 107 26 80 -2 84 -4
142 -46 32 -25 63 -42 68 -39 5 4 9 77 7 168 -1 88 2 169 6 179 10 23 46 31
92 20 29 -7 49 -23 88 -70 27 -34 74 -81 103 -104 79 -62 84 -89 41 -224 -27
-85 -37 -183 -31 -313 l5 -112 167 0 167 0 8 72 c8 86 25 132 55 148 36 19 43
56 21 106 -14 31 -26 44 -40 44 -42 0 -51 -10 -51 -60 0 -53 -3 -57 -95 -119
-100 -68 -111 -55 -79 102 30 145 42 260 49 487 4 129 2 202 -6 240 -7 30 -12
90 -11 134 2 69 5 84 31 123 16 24 47 57 69 73 22 16 48 40 59 55 10 14 31 42
47 63 62 80 77 130 82 274 3 73 6 152 8 175 l3 42 -36 -16 c-72 -31 -112 -36
-135 -15 -46 40 -131 55 -190 32 -64 -24 -197 28 -236 93 -42 69 -16 157 48
157 15 0 81 5 147 11 97 8 132 15 183 39 34 16 62 35 62 43 0 7 27 35 60 63
58 48 75 74 46 74 -8 0 -23 11 -33 23 -16 22 -22 23 -60 15 -33 -7 -41 -13
-36 -25 5 -12 2 -15 -9 -11 -9 4 -21 1 -27 -5 -8 -8 -11 -8 -11 2 0 7 -4 10
-9 7 -5 -3 -14 1 -21 9 -18 21 -29 19 -23 -5 5 -18 1 -20 -28 -16 -19 2 -42
-1 -51 -6 -13 -6 -18 -5 -18 4 0 7 -11 14 -25 14 -14 1 -25 -2 -25 -6 0 -4 -7
-10 -15 -14 -11 -4 -15 2 -15 25 0 17 4 28 9 25 5 -4 7 3 4 13 -6 24 29 33
112 30 47 -2 58 -6 65 -23 7 -17 9 -18 9 -3 1 11 9 17 26 17 22 0 24 2 14 26
l-10 27 48 -6 c26 -3 49 -10 51 -16 2 -6 8 -11 13 -11 6 0 8 4 5 9 -7 11 22
23 36 15 12 -7 139 -6 146 1 20 20 -137 82 -224 90 -32 2 -48 8 -46 16 2 9
-20 11 -92 6 l-96 -6 -70 47 c-38 26 -70 50 -70 54 0 9 76 53 107 62 18 6 23
1 34 -29 23 -62 44 -39 34 37 -5 36 -12 52 -25 55 -16 4 -15 8 10 31 35 33 28
63 -21 83 -18 8 -51 23 -73 34 l-41 20 -1 380 c-2 471 -11 586 -57 717 -19 54
-52 126 -75 160 -22 35 -49 80 -61 100 l-20 36 59 65 c143 155 477 383 663
452 61 23 53 32 -9 11 -26 -9 -49 -14 -51 -13 -4 5 146 74 180 82 15 4 26 9
23 12 -7 8 -146 -34 -235 -72 -46 -19 -87 -32 -92 -30 -4 3 -10 -3 -13 -12 -3
-10 -29 -31 -58 -47 -89 -49 -229 -148 -293 -206 -77 -71 -108 -94 -70 -51 25
28 26 32 8 22 -19 -10 -22 -9 -17 4 4 8 10 15 15 15 5 0 9 5 9 10 0 7 -6 7
-18 1 -14 -7 -18 -6 -18 10 0 10 4 19 7 19 18 0 104 103 101 121 -2 10 2 19 7
19 6 0 11 7 11 16 0 9 33 50 74 90 40 40 66 69 57 65 -9 -5 -47 -41 -86 -80
-38 -39 -76 -69 -82 -66 -7 2 -12 1 -10 -3 3 -11 -55 -72 -68 -72 -5 0 -20
-17 -32 -39 -17 -30 -19 -41 -10 -51 10 -10 9 -12 -5 -7 -13 4 -18 -1 -20 -21
-2 -15 -12 -31 -24 -37 -12 -6 -29 -17 -38 -24 -14 -12 -16 -12 -10 3 7 17
-11 23 -21 6 -4 -6 -10 -8 -15 -5 -4 3 -23 -15 -41 -40 -36 -47 -53 -55 -63
-30 -3 8 -2 14 2 14 21 -4 32 2 26 14 -4 6 -4 9 1 5 8 -7 40 28 40 44 0 4 10
15 23 23 12 9 22 22 22 29 0 8 10 16 23 20 13 3 40 29 60 58 20 29 58 76 85
103 26 28 72 77 102 110 l55 59 -50 -41 c-87 -72 -206 -208 -220 -252 -3 -11
-13 -22 -22 -25 -14 -6 -14 -4 0 16 26 37 57 88 53 88 -2 0 -29 -30 -60 -67
-30 -38 -88 -102 -127 -143 -69 -71 -75 -73 -19 -3 58 72 70 88 70 96 0 5 5 5
12 1 6 -4 8 -3 4 4 -3 5 9 30 28 55 33 44 68 102 49 82 -8 -8 -139 -170 -148
-183 -2 -2 -5 4 -9 13 -3 9 -2 13 4 10 6 -3 10 1 10 9 0 9 3 15 8 15 19 -3 26
2 13 10 -12 8 -11 16 10 48 36 54 46 86 15 48 -13 -16 -38 -46 -55 -65 -17
-19 -31 -39 -31 -43 0 -10 -141 -217 -148 -217 -2 0 3 12 13 26 9 14 15 34 12
45 -3 10 1 23 9 30 8 6 14 16 14 22 0 6 -16 -11 -36 -36 -20 -26 -38 -47 -39
-47 -4 0 1 46 9 74 5 16 24 56 43 89 18 32 33 61 33 64 0 3 10 19 22 36 12 17
23 37 24 45 3 16 37 62 93 122 22 25 41 48 41 52 0 4 18 26 39 50 22 23 38 45
35 48 -12 12 -149 -146 -229 -263 -22 -32 -43 -61 -48 -64 -9 -5 25 51 73 122
15 22 30 50 34 63 4 12 12 22 17 22 6 0 8 4 5 9 -4 5 -3 11 1 13 15 6 75 89
69 95 -11 11 -38 -7 -32 -23 3 -8 2 -13 -3 -10 -9 6 -71 -58 -71 -73 0 -4 -13
-23 -30 -42 -16 -19 -34 -39 -39 -45 -5 -7 -7 -15 -3 -20 4 -4 1 -4 -7 1 -9 5
-12 3 -9 -6 2 -7 -4 -22 -13 -34 -10 -11 -25 -29 -33 -40 -13 -17 -15 -18 -16
-3 0 9 5 20 10 23 14 9 62 105 53 105 -5 0 -20 -19 -35 -43 -15 -23 -40 -56
-56 -72 -16 -17 -31 -37 -35 -45 -4 -10 -6 -11 -6 -2 -1 7 14 41 31 75 18 34
33 67 33 72 0 14 -48 15 -57 1 -4 -6 -8 -6 -8 -1 1 6 38 49 84 97 l83 87 -46
-1 c-25 0 -52 -5 -60 -12 -11 -8 -13 -8 -7 2 11 18 -850 18 -868 0 -6 -7 -18
-29 -26 -48 -7 -19 -35 -79 -62 -132 -26 -53 -48 -100 -48 -104 0 -3 -13 -34
-29 -68 -30 -63 -118 -258 -153 -335 -15 -34 -22 -41 -29 -30 -5 8 -9 22 -9
32 0 9 -4 17 -10 17 -5 0 -10 9 -10 20 0 11 -4 20 -10 20 -5 0 -10 16 -10 35
0 28 -4 35 -20 35 -15 0 -20 7 -20 25 0 17 -5 25 -18 25 -10 0 -24 9 -32 20
-8 11 -22 20 -32 20 -11 0 -18 7 -18 20 0 13 -7 20 -20 20 -11 0 -20 7 -20 15
0 8 -9 15 -20 15 -11 0 -20 5 -20 10 0 6 -9 10 -20 10 -11 0 -20 7 -20 15 0 8
-9 15 -20 15 -11 0 -20 5 -20 10 0 6 -9 10 -20 10 -11 0 -20 5 -20 10 0 6 -9
10 -20 10 -13 0 -20 7 -20 20 0 13 -7 20 -20 20 -13 0 -20 7 -20 20 0 13 -7
20 -20 20 -13 0 -20 7 -20 20 0 11 -7 20 -15 20 -9 0 -31 16 -51 35 -27 27
-40 34 -59 29 -29 -7 -55 15 -55 45 0 17 -6 21 -30 21 -28 0 -30 3 -30 35 0
28 -4 35 -20 35 -20 0 -20 -7 -20 -2186z m2000 1993 c0 -2 -10 -12 -22 -23
l-23 -19 19 23 c18 21 26 27 26 19z m493 -142 c-3 -9 -8 -14 -10 -11 -3 3 -2
9 2 15 9 16 15 13 8 -4z m-317 -163 c-17 -16 -18 -16 -5 5 7 12 15 20 18 17 3
-2 -3 -12 -13 -22z m-106 -1102 c-13 -104 -25 -150 -45 -175 -14 -19 -14 -18
-5 10 29 97 45 258 45 485 1 129 3 244 5 255 10 46 10 -496 0 -575z m68 317
c3 -23 0 -28 -15 -25 -11 2 -18 13 -20 31 -3 39 31 33 35 -6z m-1414 -274 c31
-75 34 -102 9 -82 -9 8 -19 13 -22 11 -3 -1 -7 8 -9 20 -5 41 -23 88 -33 88
-6 0 -5 9 2 21 14 27 21 19 53 -58z m-67 -35 c-3 -7 -5 -2 -5 12 0 14 2 19 5
13 2 -7 2 -19 0 -25z m33 0 c0 -16 -3 -19 -11 -11 -6 6 -8 16 -5 22 11 17 16
13 16 -11z m436 -80 c-4 -18 -13 -39 -21 -48 -13 -13 -15 -11 -15 13 0 29 19
67 34 67 5 0 6 -15 2 -32z m18 -276 c2 -4 -7 -54 -20 -112 -13 -58 -28 -125
-34 -150 -5 -25 -13 -87 -16 -137 -4 -51 -10 -93 -15 -93 -38 0 -37 286 1 396
26 77 67 124 84 96z m547 -297 c139 -211 184 -297 192 -374 10 -90 66 -187
175 -309 31 -35 59 -66 62 -70 3 -3 -19 14 -48 38 -28 25 -78 67 -109 93 l-58
48 -7 -28 c-5 -15 -15 -75 -23 -133 -8 -58 -20 -127 -26 -155 -6 -27 -11 -57
-11 -65 0 -16 -13 -59 -33 -105 -7 -16 -21 -50 -30 -75 -36 -94 -35 -94 -47
-82 -6 6 -9 37 -6 76 3 58 2 66 -14 66 -10 0 -18 -4 -18 -10 0 -5 -21 -24 -47
-42 -64 -43 -133 -108 -133 -123 0 -14 -62 -65 -79 -65 -16 0 -13 -17 3 -23 8
-3 24 -3 35 0 32 8 18 -18 -22 -41 -18 -11 -27 -21 -19 -23 29 -11 8 -33 -53
-53 -72 -24 -84 -40 -28 -40 l36 0 -23 -20 c-12 -11 -31 -22 -41 -25 -25 -8
-24 -35 1 -35 11 0 20 -4 20 -10 0 -13 -78 -62 -89 -56 -8 5 13 178 24 196 3
5 0 10 -8 10 -8 0 -27 -17 -43 -37 -43 -57 -65 -78 -113 -108 -34 -21 -42 -23
-38 -10 4 9 2 25 -4 36 -8 16 -6 24 13 39 38 33 101 67 135 74 24 6 40 20 62
54 51 79 55 85 76 110 11 14 36 42 55 63 19 21 46 52 60 69 14 17 33 41 43 52
9 12 17 25 17 29 0 14 58 66 87 78 15 6 43 12 61 14 17 1 32 6 32 11 0 4 6 6
13 3 19 -7 29 2 55 47 24 40 51 170 52 240 0 60 -21 165 -36 180 -7 8 -10 16
-7 20 3 3 -14 3 -38 0 -44 -6 -44 -6 -26 14 19 21 10 36 -16 26 -9 -3 -20 7
-31 29 -9 19 -22 37 -30 40 -18 7 -66 105 -66 135 0 12 9 42 19 65 17 36 18
53 11 122 -5 44 -12 109 -15 145 l-6 65 28 -50 c15 -28 49 -82 74 -120z m-219
-77 c8 -12 28 -60 44 -104 24 -70 26 -84 15 -98 -13 -15 -15 -15 -32 0 -11 10
-19 27 -19 38 0 22 -19 59 -21 41 -3 -33 -20 65 -24 145 -5 92 -5 93 8 48 7
-25 20 -57 29 -70z m-243 -160 c8 14 18 -2 48 -82 19 -50 63 -105 98 -124 12
-6 49 -8 88 -5 64 6 67 5 67 -16 0 -22 -32 -60 -80 -94 -14 -10 -19 -15 -11
-11 9 5 12 3 7 -4 -10 -17 -56 -14 -86 4 l-25 15 34 -6 35 -5 -47 31 c-116 77
-206 264 -157 324 14 17 15 17 18 -10 2 -17 7 -24 11 -17z m1412 -108 c5 0 9
-7 9 -15 0 -8 -4 -15 -10 -15 -5 0 -7 -13 -3 -30 3 -16 2 -30 -2 -30 -10 0
-65 61 -65 71 0 13 34 29 48 24 8 -3 18 -5 23 -5z m-138 -914 c20 -18 37 -39
37 -45 0 -16 -6 -14 -37 17 -66 63 -66 89 0 28z m-1215 -408 c-3 -15 -38 -31
-47 -22 -6 6 27 34 41 34 4 0 7 -6 6 -12z m8 -74 c-3 -8 -2 -13 2 -10 4 2 18
-2 32 -9 l25 -14 -39 -16 c-27 -12 -42 -13 -49 -6 -8 8 -8 14 1 23 18 18 14
31 -8 25 -11 -3 -20 -2 -20 2 0 14 13 21 38 21 18 0 23 -4 18 -16z m-26 -154
c0 -5 -4 -10 -10 -10 -5 0 -10 5 -10 10 0 6 5 10 10 10 6 0 10 -4 10 -10z m-2
-66 c14 -15 14 -16 -3 -13 -10 2 -20 10 -23 17 -5 17 6 15 26 -4z m809 -49 c8
-22 -6 -33 -17 -15 -13 20 -12 30 0 30 6 0 13 -7 17 -15z m-752 -115 c0 -18
-52 -27 -67 -12 -17 17 2 33 35 30 20 -2 32 -8 32 -18z m5 -40 c0 -14 -37 -31
-54 -24 -32 12 -13 32 32 33 12 1 22 -3 22 -9z m20 -65 c0 -11 -50 -24 -67
-18 -15 6 -15 7 3 14 22 9 64 11 64 4z m7 -71 c-3 -3 -12 -4 -19 -1 -8 3 -5 6
6 6 11 1 17 -2 13 -5z m-37 -8 c0 -2 -7 -7 -16 -10 -8 -3 -12 -2 -9 4 6 10 25
14 25 6z m-716 -170 c40 -38 46 -59 15 -54 -21 3 -80 88 -61 88 6 0 27 -15 46
-34z m746 -239 c0 -5 -4 -5 -10 -2 -5 3 -10 14 -10 23 0 15 2 15 10 2 5 -8 10
-19 10 -23z"/>
<path d="M2063 5039 c-75 -72 -90 -89 -80 -89 2 0 44 38 93 85 49 46 85 85 79
85 -5 0 -47 -37 -92 -81z"/>
<path d="M2839 5103 c-13 -17 -13 -17 6 -3 11 8 22 16 24 17 2 2 0 3 -6 3 -6
0 -17 -8 -24 -17z"/>
<path d="M3302 5103 c-24 -8 -41 -17 -39 -20 5 -5 117 26 117 33 0 8 -35 2
-78 -13z"/>
<path d="M3355 5089 c-92 -33 -83 -38 14 -9 68 21 111 41 81 38 -8 0 -51 -14
-95 -29z"/>
<path d="M2716 5093 c-6 -14 -5 -15 5 -6 7 7 10 15 7 18 -3 3 -9 -2 -12 -12z"/>
<path d="M2169 5083 c-13 -16 -12 -17 4 -4 9 7 17 15 17 17 0 8 -8 3 -21 -13z"/>
<path d="M3463 5090 c-26 -11 -29 -22 -10 -42 105 -111 175 -224 201 -324 27
-106 46 -282 46 -424 0 -77 -2 -140 -5 -140 -2 0 -21 11 -41 25 -64 44 -128
56 -209 40 -59 -11 -64 -13 -31 -14 63 -2 29 -22 -45 -27 l-64 -4 34 15 c18 9
32 18 30 20 -6 6 -184 -32 -241 -51 -28 -9 -58 -24 -67 -33 -9 -9 -29 -17 -44
-18 -32 -2 -111 -52 -115 -73 -3 -19 60 -43 108 -42 20 1 83 22 140 48 119 52
234 89 332 106 78 14 129 3 178 -39 31 -25 31 -28 27 -92 -3 -36 -12 -160 -21
-276 -29 -397 -35 -449 -67 -546 -17 -50 -46 -115 -65 -145 -19 -29 -34 -56
-34 -59 0 -12 26 -3 48 18 l25 22 -7 -34 c-3 -19 -9 -66 -13 -105 l-6 -71 24
16 c34 22 86 131 103 214 11 52 15 61 15 35 1 -19 5 -41 10 -48 11 -19 21 33
21 115 0 66 23 178 42 200 6 7 7 21 4 30 -4 10 -4 14 0 10 10 -9 40 41 50 84
4 19 8 36 9 39 49 206 62 548 31 800 -20 156 -40 225 -98 330 -22 41 -54 99
-69 128 -16 30 -40 68 -53 85 -12 18 -29 47 -36 65 -7 17 -28 46 -47 62 -19
17 -31 35 -28 40 3 6 -3 10 -14 10 -12 0 -21 5 -21 10 0 6 7 10 15 10 8 0 15
9 15 20 0 22 -19 25 -57 10z m308 -1085 c-3 -285 -49 -614 -50 -365 -2 229 27
536 47 515 3 -2 4 -70 3 -150z m-141 -972 c-11 -17 -11 -17 -6 0 3 10 6 24 7
30 0 9 2 9 5 0 3 -7 0 -20 -6 -30z"/>
<path d="M2666 5054 c-5 -14 -4 -15 9 -4 17 14 19 20 6 20 -5 0 -12 -7 -15
-16z"/>
<path d="M3198 5063 c7 -3 16 -2 19 1 4 3 -2 6 -13 5 -11 0 -14 -3 -6 -6z"/>
<path d="M2727 4883 c-13 -13 -17 -14 -17 -3 0 9 -9 5 -27 -12 -16 -13 -49
-40 -75 -58 -27 -18 -46 -35 -44 -38 3 -2 29 15 60 37 61 45 68 48 60 26 -10
-26 3 -17 36 25 33 42 36 52 7 23z m-17 -17 c0 -3 -4 -8 -10 -11 -5 -3 -10 -1
-10 4 0 6 5 11 10 11 6 0 10 -2 10 -4z"/>
<path d="M2708 4827 c-15 -12 -40 -33 -55 -45 l-28 -24 35 23 c46 30 94 69 83
69 -4 0 -20 -11 -35 -23z"/>
<path d="M2400 4705 c0 -8 2 -15 4 -15 2 0 6 7 10 15 3 8 1 15 -4 15 -6 0 -10
-7 -10 -15z"/>
<path d="M2370 4691 c0 -5 -3 -18 -7 -28 -6 -16 -5 -16 10 -4 19 15 23 41 7
41 -5 0 -10 -4 -10 -9z"/>
<path d="M2343 4678 c-15 -20 -25 -38 -20 -38 3 0 12 11 21 25 17 26 16 35 -1
13z"/>
<path d="M4050 4459 c0 -5 5 -7 10 -4 6 3 10 8 10 11 0 2 -4 4 -10 4 -5 0 -10
-5 -10 -11z"/>
<path d="M3334 4050 c-86 -13 -151 -39 -237 -97 -94 -63 -127 -91 -127 -108 0
-19 38 -48 55 -41 12 4 14 0 9 -19 -5 -20 -1 -27 21 -35 58 -22 125 -4 125 34
0 22 7 20 43 -10 25 -21 38 -25 71 -21 67 7 90 15 109 38 14 17 20 19 32 9 8
-7 15 -21 15 -31 0 -16 5 -18 28 -14 23 5 22 3 -10 -15 -59 -32 -45 -32 28 0
36 17 74 30 85 30 29 0 23 14 -22 55 -54 48 -130 83 -201 91 -36 4 -55 10 -51
17 4 6 -3 8 -18 4 -23 -6 -23 -6 -4 9 15 12 38 15 100 11 65 -3 92 -10 146
-37 65 -32 66 -33 102 -15 l36 17 -37 54 c-31 45 -45 56 -86 69 -52 16 -126
18 -212 5z m11 -180 c3 -5 1 -10 -4 -10 -6 0 -11 5 -11 10 0 6 2 10 4 10 3 0
8 -4 11 -10z"/>
<path d="M3046 3712 c-51 -9 -56 -26 -14 -52 85 -52 264 -78 347 -49 38 13 39
22 6 43 -33 22 -32 31 8 43 28 8 22 9 -38 9 -38 0 -115 2 -170 6 -55 4 -118 3
-139 0z m254 -52 c0 -5 -7 -10 -15 -10 -8 0 -15 5 -15 10 0 6 7 10 15 10 8 0
15 -4 15 -10z"/>
<path d="M5080 3180 c0 -13 -7 -20 -20 -20 -16 0 -20 -7 -20 -34 0 -29 -4 -34
-30 -39 -16 -4 -43 -4 -60 0 -27 5 -30 3 -30 -21 0 -24 -3 -26 -40 -26 -33 0
-40 -3 -40 -20 0 -13 -7 -20 -20 -20 -11 0 -20 -7 -20 -15 0 -8 -9 -15 -20
-15 -11 0 -20 -4 -20 -10 0 -5 -7 -10 -15 -10 -10 0 -15 -11 -15 -35 0 -29 -4
-35 -21 -35 -22 0 -49 -22 -49 -39 0 -6 -4 -11 -10 -11 -5 0 -10 -7 -10 -15 0
-8 -4 -15 -10 -15 -5 0 -10 -12 -10 -26 0 -29 -16 -48 -48 -58 -17 -6 -22 -15
-22 -42 0 -19 -4 -34 -10 -34 -5 0 -10 9 -10 21 0 12 -5 19 -12 16 -7 -2 -11
-15 -10 -28 13 -88 13 -162 0 -171 -8 -6 -1 -7 23 -4 46 8 64 -10 54 -55 -7
-30 -9 -31 -50 -27 -25 3 -56 -1 -76 -9 -18 -8 -45 -11 -61 -8 -17 4 -28 2
-28 -4 0 -6 7 -11 15 -11 28 0 15 -28 -15 -32 -19 -3 -30 0 -30 8 0 6 -13 17
-30 24 -16 7 -30 19 -30 26 0 9 -11 14 -29 14 -21 0 -31 6 -36 23 -7 19 -9 17
-12 -15 -2 -21 -10 -38 -16 -39 -7 0 -33 -2 -59 -4 -28 -3 -48 0 -48 6 0 6 -4
7 -10 4 -5 -3 -10 1 -10 9 0 9 -6 16 -13 16 -8 0 -22 20 -33 45 -15 37 -23 45
-45 45 -15 0 -32 -6 -38 -14 -7 -8 -31 -16 -54 -18 -23 -3 -50 -8 -59 -12 -13
-6 -18 -4 -18 8 0 12 -10 16 -40 16 -29 0 -40 -4 -40 -15 0 -8 -4 -15 -10 -15
-5 0 -10 -7 -10 -16 0 -18 -23 -44 -40 -44 -6 0 -9 -8 -6 -18 8 -23 -21 -82
-39 -82 -8 0 -16 12 -18 28 -3 15 -3 3 -1 -26 7 -94 73 -225 96 -190 6 10 8
10 8 1 0 -7 11 -13 25 -13 32 0 106 -30 100 -40 -3 -4 16 -14 41 -21 26 -8 56
-25 68 -39 11 -14 27 -25 34 -25 6 0 11 -3 10 -6 -5 -11 65 -64 80 -61 10 2
12 -3 7 -18 -5 -17 -2 -23 15 -27 13 -3 19 -11 16 -20 -3 -7 1 -16 9 -19 8 -4
12 -11 8 -17 -3 -5 -1 -7 5 -3 6 3 17 -3 25 -14 7 -11 17 -17 21 -12 4 4 6 2
5 -3 -2 -6 5 -24 15 -42 20 -32 53 -53 84 -53 15 0 15 2 2 11 -12 9 -12 10 3
5 10 -3 26 -6 34 -6 13 0 13 -3 3 -15 -10 -12 -9 -15 4 -15 9 0 26 -9 38 -20
12 -11 30 -20 39 -20 10 0 21 -4 24 -10 3 -5 15 -10 26 -10 10 0 19 -4 19 -10
0 -5 9 -10 20 -10 11 0 20 -4 20 -9 0 -9 60 -37 73 -33 4 1 7 -3 7 -9 0 -8 4
-8 14 0 10 8 16 9 21 1 10 -16 81 -50 105 -50 11 0 20 -4 20 -9 0 -5 15 -13
33 -16 17 -4 39 -13 48 -21 8 -8 37 -18 63 -23 27 -5 60 -17 75 -28 25 -18
133 -63 152 -63 5 0 9 385 9 950 0 943 0 950 -20 950 -13 0 -20 -7 -20 -20z
m-420 -400 c0 -11 -4 -20 -10 -20 -5 0 -10 9 -10 20 0 11 5 20 10 20 6 0 10
-9 10 -20z m115 -470 c-3 -5 -32 -17 -63 -26 -31 -9 -61 -20 -66 -25 -6 -5
-23 -9 -38 -9 -18 0 -28 -5 -28 -15 0 -8 -3 -14 -7 -14 -29 5 -36 -2 -15 -17
12 -8 22 -22 22 -30 0 -8 11 -20 25 -26 14 -6 25 -17 25 -24 0 -6 7 -15 16
-18 14 -5 16 -18 12 -75 -6 -79 -24 -111 -71 -128 -26 -9 -28 -12 -9 -12 34
-1 26 -19 -10 -24 l-33 -4 35 -1 c20 -1 41 3 48 10 16 16 43 -11 70 -65 26
-53 14 -129 -24 -162 -22 -19 -30 -21 -46 -12 -22 14 -22 20 -2 76 13 39 13
46 -1 67 -11 17 -25 24 -48 24 -24 0 -28 -3 -17 -10 13 -9 13 -10 0 -10 -13 0
-13 -1 0 -10 9 -6 10 -10 3 -10 -6 0 -19 7 -27 15 -14 14 -16 14 -20 -7 -9
-43 -4 -59 16 -52 10 3 18 2 17 -3 -1 -4 1 -16 6 -26 12 -28 -12 -47 -56 -44
-25 1 -38 6 -35 14 3 6 0 13 -6 15 -19 7 -23 115 -4 143 19 29 21 52 4 58 -8
3 -3 9 12 15 l25 11 -28 0 c-16 1 -26 5 -23 10 3 5 -3 11 -14 14 -11 3 -20 9
-19 14 1 4 -6 26 -15 47 -20 46 -12 131 13 131 8 0 16 7 18 15 4 13 3 13 -6 0
-8 -11 -11 -11 -11 -2 0 7 7 15 16 19 15 6 15 8 -2 20 -16 12 -14 13 22 14 22
1 31 4 19 7 l-20 5 20 8 c17 6 15 8 -11 8 -17 1 -34 4 -37 7 -12 12 14 44 36
45 17 1 15 3 -8 8 -27 7 -25 8 26 15 30 4 66 6 80 3 14 -2 3 -5 -26 -7 l-50
-2 54 -8 c51 -8 63 -6 126 21 58 24 141 37 130 19z m-237 -7 c-15 -2 -42 -2
-60 0 -18 2 -6 4 27 4 33 0 48 -2 33 -4z m199 -39 c-3 -3 -12 -4 -19 -1 -8 3
-5 6 6 6 11 1 17 -2 13 -5z m-307 -458 c0 -3 -4 -8 -10 -11 -5 -3 -10 -1 -10
4 0 6 5 11 10 11 6 0 10 -2 10 -4z"/>
<path d="M4523 2193 c9 -2 23 -2 30 0 6 3 -1 5 -18 5 -16 0 -22 -2 -12 -5z"/>
<path d="M4538 2173 c7 -3 16 -2 19 1 4 3 -2 6 -13 5 -11 0 -14 -3 -6 -6z"/>
<path d="M4506 2095 c-10 -8 -23 -12 -28 -9 -5 3 -8 -18 -6 -49 3 -52 4 -54
27 -47 30 7 53 40 34 47 -7 3 -13 13 -13 23 0 10 6 21 13 23 9 4 9 6 -1 6 -7
1 -10 6 -7 11 8 13 4 12 -19 -5z"/>
<path d="M4455 2010 c-3 -5 -1 -10 4 -10 6 0 11 5 11 10 0 6 -2 10 -4 10 -3 0
-8 -4 -11 -10z"/>
<path d="M4485 1880 l-30 -8 37 -1 c20 0 40 4 43 9 7 11 -6 11 -50 0z"/>
<path d="M4470 1850 c0 -5 7 -7 15 -4 8 4 15 8 15 10 0 2 -7 4 -15 4 -8 0 -15
-4 -15 -10z"/>
<path d="M2830 2981 c-19 -16 -33 -31 -30 -34 3 -2 35 -7 72 -11 53 -5 69 -3
82 10 23 23 20 43 -10 54 -44 17 -78 11 -114 -19z"/>
<path d="M4538 2783 c7 -3 16 -2 19 1 4 3 -2 6 -13 5 -11 0 -14 -3 -6 -6z"/>
<path d="M4538 2733 c6 -2 18 -2 25 0 6 3 1 5 -13 5 -14 0 -19 -2 -12 -5z"/>
<path d="M2908 2693 c6 -2 18 -2 25 0 6 3 1 5 -13 5 -14 0 -19 -2 -12 -5z"/>
<path d="M4408 2583 c6 -2 18 -2 25 0 6 3 1 5 -13 5 -14 0 -19 -2 -12 -5z"/>
<path d="M4270 2526 c0 -2 7 -7 16 -10 8 -3 12 -2 9 4 -6 10 -25 14 -25 6z"/>
<path d="M2746 2485 c-9 -26 -7 -32 5 -12 6 10 9 21 6 23 -2 3 -7 -2 -11 -11z"/>
<path d="M2876 2484 c-6 -15 -4 -15 11 -3 10 7 20 15 22 16 2 2 -3 3 -11 3 -9
0 -19 -7 -22 -16z"/>
<path d="M4288 2493 c7 -3 16 -2 19 1 4 3 -2 6 -13 5 -11 0 -14 -3 -6 -6z"/>
<path d="M4181 2404 c0 -11 3 -14 6 -6 3 7 2 16 -1 19 -3 4 -6 -2 -5 -13z"/>
<path d="M3821 1768 c4 -40 17 -118 29 -173 18 -84 22 -128 21 -275 -1 -96 -6
-200 -11 -230 -31 -183 -65 -316 -94 -360 -12 -19 -29 -57 -36 -85 -8 -27 -22
-68 -32 -90 -9 -22 -18 -49 -18 -59 0 -11 -9 -38 -19 -60 -11 -23 -22 -54 -25
-71 -6 -38 -32 -109 -50 -138 -7 -12 -18 -47 -25 -78 -9 -42 -21 -64 -46 -89
-19 -19 -35 -40 -35 -47 0 -11 153 -13 820 -13 l820 0 0 450 0 449 -37 7 c-21
4 -46 11 -56 16 -10 5 -37 12 -60 16 -23 4 -43 13 -43 20 -1 6 -2 16 -3 21 0
5 -15 14 -32 20 l-30 10 25 34 c29 37 35 87 12 87 -8 0 -21 12 -28 28 -17 35
-68 45 -68 13 0 -21 -80 -80 -108 -81 -20 0 -26 30 -15 72 10 35 8 41 -11 53
-17 11 -108 44 -123 45 -2 0 3 -11 9 -25 6 -14 8 -28 5 -32 -8 -7 -207 43
-220 56 -4 4 -5 15 -1 25 8 20 47 15 72 -10 18 -18 26 -11 42 39 15 47 7 57
-60 86 -32 14 -50 28 -50 39 0 41 -21 89 -44 102 -14 7 -30 26 -37 42 -16 39
-33 30 -37 -20 -3 -39 -1 -42 22 -42 31 0 50 -31 40 -63 -5 -12 -7 -25 -6 -29
1 -5 -5 -8 -14 -8 -14 0 -14 -3 -4 -15 10 -12 10 -18 -1 -31 -7 -9 -14 -37
-16 -63 -6 -96 -16 -147 -30 -163 -8 -9 -16 -42 -18 -73 -2 -41 -10 -64 -24
-79 -12 -12 -21 -34 -21 -49 0 -15 -4 -27 -10 -27 -5 0 -7 -7 -3 -16 3 -10 0
-22 -8 -28 -14 -11 -59 -132 -59 -160 0 -9 7 -16 15 -16 18 0 45 62 38 88 -6
26 9 30 100 24 89 -5 101 -16 73 -64 -10 -17 -15 -36 -11 -46 10 -23 18 -78
19 -129 0 -24 4 -43 8 -43 8 0 68 -87 68 -100 0 -4 -22 -8 -48 -7 -41 2 -58 9
-105 46 -32 24 -57 47 -57 52 0 5 -13 9 -28 9 -37 0 -112 54 -112 80 0 11 -3
20 -6 20 -10 0 -39 -33 -39 -44 0 -11 -8 -16 -26 -16 -5 0 -8 3 -5 8 2 4 -1
15 -8 24 -10 14 -19 16 -43 9 -36 -10 -86 8 -102 37 -10 18 -7 21 21 27 l32 7
-27 24 c-15 13 -27 27 -27 32 0 5 21 15 48 22 l47 12 -23 18 c-24 20 -22 24
23 34 l29 7 -32 21 c-38 24 -40 36 -7 44 23 6 23 7 9 29 -15 23 -15 24 21 31
53 10 77 72 35 94 -11 6 -20 16 -20 23 1 16 36 57 49 57 21 0 12 48 -10 55
-14 5 -17 10 -10 19 7 8 6 21 -4 39 -12 24 -12 27 2 27 12 0 13 3 3 15 -17 20
-6 32 39 40 49 8 49 35 1 51 -46 15 -49 31 -8 42 42 11 42 34 1 46 -39 10 -42
23 -10 36 l22 9 -23 7 c-12 3 -21 13 -20 22 2 10 -11 19 -37 27 l-40 12 35 15
35 15 -27 6 c-33 9 -35 18 -7 43 l20 18 -31 26 c-18 14 -41 50 -53 80 -32 78
-44 74 -36 -12z m960 -728 c53 -29 -6 -83 -67 -61 -17 6 -42 11 -57 11 -15 0
-27 3 -27 8 1 38 104 66 151 42z m-516 -139 c53 -12 37 -36 -27 -39 -55 -3
-58 -2 -58 21 0 31 10 40 35 32 11 -4 34 -10 50 -14z m-165 -421 c28 -28 25
-40 -10 -40 -32 0 -47 18 -36 45 7 20 22 19 46 -5z m38 -124 c-4 -31 -38 -34
-38 -3 0 29 7 37 27 30 8 -3 13 -15 11 -27z"/>
<path d="M4126 1402 c-11 -2 -15 -9 -12 -19 3 -8 6 -17 6 -19 0 -9 39 -4 45 6
3 6 17 10 29 10 13 0 28 6 34 13 8 9 0 12 -37 12 -26 0 -55 -2 -65 -3z"/>
<path d="M4088 1278 c-22 -27 -22 -32 -2 -52 14 -14 13 -17 -10 -27 -14 -7
-23 -16 -20 -21 3 -4 10 -6 15 -2 5 3 8 0 7 -8 -2 -7 7 -14 20 -16 19 -3 22 1
22 28 0 26 5 33 30 41 53 19 32 79 -27 79 -10 0 -26 -10 -35 -22z"/>
<path d="M4060 1130 c-12 -8 -9 -10 12 -10 14 0 35 -3 45 -6 16 -5 16 -4 -1
10 -23 18 -35 20 -56 6z"/>
<path d="M4045 1060 c-3 -5 0 -19 7 -31 10 -17 10 -23 1 -26 -7 -3 -13 -9 -13
-14 0 -14 60 -11 64 4 2 6 8 27 14 45 l10 32 -38 0 c-21 0 -41 -4 -45 -10z"/>
<path d="M4037 963 c-15 -14 -6 -23 24 -23 27 0 30 2 19 15 -13 16 -32 19 -43
8z"/>
<path d="M3989 784 c-1 -5 -1 -12 0 -16 0 -5 -5 -8 -11 -8 -7 0 -18 -11 -24
-25 -10 -21 -9 -26 14 -41 24 -16 26 -15 42 6 18 24 16 63 -6 81 -8 6 -15 8
-15 3z"/>
<path d="M3910 660 c0 -13 33 -21 42 -12 6 6 -1 11 -16 14 -14 3 -26 2 -26 -2z"/>
</g>
</svg>
