<?xml version="1.0" standalone="no"?>
<!DOCTYPE svg PUBLIC "-//W3C//DTD SVG 20010904//EN"
 "http://www.w3.org/TR/2001/REC-SVG-20010904/DTD/svg10.dtd">
<svg version="1.0" xmlns="http://www.w3.org/2000/svg"
 width="512.000000pt" height="512.000000pt" viewBox="0 0 512.000000 512.000000"
 preserveAspectRatio="xMidYMid meet">

<g transform="translate(0.000000,512.000000) scale(0.100000,-0.100000)"
fill="currentColor" stroke="none">
<path d="M0 2560 l0 -2560 1075 0 c951 0 1074 2 1069 15 -7 17 -11 18 -70 15
-23 -1 -45 3 -49 9 -3 6 -28 11 -55 11 -27 0 -51 4 -55 9 -3 6 -38 19 -78 31
-39 12 -81 26 -92 30 -11 5 -31 12 -45 16 -14 4 -37 16 -52 28 -53 42 -83 61
-91 58 -5 -1 -7 3 -5 10 9 27 72 48 145 48 39 0 75 5 78 10 3 6 21 10 39 10
19 0 39 7 46 15 7 8 25 15 41 15 15 0 31 5 34 10 3 6 16 10 28 10 12 0 28 9
35 20 7 11 19 20 27 20 8 0 19 9 25 20 10 18 18 20 91 16 44 -3 103 -12 131
-22 42 -14 52 -14 59 -3 5 8 9 77 9 154 -1 177 -1 172 15 185 16 13 57 -4 95
-39 14 -12 37 -29 53 -37 15 -8 27 -19 27 -24 0 -5 9 -12 21 -15 11 -4 25 -20
31 -36 5 -16 14 -26 19 -23 5 3 9 0 9 -6 0 -6 4 -9 9 -6 10 7 36 -22 45 -50 3
-11 -1 -58 -10 -105 -8 -46 -18 -155 -21 -241 l-6 -158 181 0 c206 0 199 -3
173 85 -11 38 -11 59 -3 90 18 67 -26 74 -124 19 -64 -36 -84 -37 -84 -6 0 9
18 88 39 174 22 87 42 188 46 225 3 37 13 99 22 137 14 62 14 75 0 150 -45
227 -37 418 19 493 13 17 24 36 24 41 0 5 11 17 24 26 14 8 28 26 31 38 4 13
18 38 32 56 34 46 67 125 88 212 10 41 21 77 24 80 4 3 20 37 36 75 15 39 37
83 48 98 29 42 13 44 -45 7 -29 -19 -75 -45 -102 -59 -43 -22 -51 -23 -80 -12
-129 54 -193 72 -246 68 -69 -5 -148 22 -177 61 -11 15 -26 44 -34 65 -12 35
-12 39 12 62 21 21 41 27 144 40 66 8 138 15 160 15 21 0 58 7 81 16 38 14 43
21 49 56 4 22 5 40 3 41 -1 1 -12 8 -23 14 -79 49 -89 52 -197 57 -42 2 -81 7
-87 10 -14 9 -15 63 -1 71 5 3 49 10 97 16 48 5 107 17 130 25 26 9 67 14 105
12 35 -1 93 -1 131 0 59 2 67 4 67 22 0 33 -39 51 -81 39 -31 -10 -42 -8 -88
16 -29 14 -56 24 -59 21 -3 -3 -11 2 -18 12 -8 12 -24 18 -43 17 -17 -1 -28 2
-25 7 6 9 3 10 -56 13 -25 1 -51 -2 -58 -8 -7 -5 -27 -7 -46 -4 -42 7 -119 54
-113 70 2 6 28 19 58 28 52 16 55 16 76 -3 34 -31 44 -15 38 62 -6 80 3 90 78
90 24 0 58 5 75 11 52 18 53 60 2 78 -25 8 -35 5 -75 -21 -25 -16 -52 -40 -61
-52 l-16 -21 7 23 c10 36 -19 70 -89 103 -38 18 -69 41 -79 58 -22 37 -22 134
-2 195 17 49 17 59 12 431 -2 143 -7 271 -11 285 -5 14 -22 44 -37 67 -16 23
-29 46 -29 51 0 6 -3 12 -7 14 -5 2 -21 23 -38 48 -16 25 -36 49 -42 53 -7 4
-13 15 -13 24 0 10 -12 29 -26 44 -21 22 -27 38 -28 83 -1 55 0 56 59 117 76
78 272 239 291 239 3 0 43 24 87 53 45 30 91 59 102 66 l20 13 -20 -7 c-88
-30 -130 -46 -135 -53 -5 -7 -27 -21 -99 -58 -24 -13 -40 -24 -35 -24 5 0 -2
-7 -15 -16 -19 -14 -25 -14 -33 -3 -8 12 -9 11 -5 -1 4 -15 1 -18 -41 -55
l-23 -19 10 27 c6 15 7 27 3 27 -18 0 -3 51 26 88 18 22 32 45 32 51 0 6 6 11
13 11 8 0 7 4 -3 10 -13 8 -8 14 10 12 3 0 7 8 7 19 1 15 -2 17 -16 9 -10 -5
-21 -16 -25 -25 -3 -8 -17 -15 -31 -15 -18 0 -25 -5 -25 -20 0 -11 -4 -20 -10
-20 -5 0 -10 9 -10 20 0 16 -5 14 -35 -16 -19 -19 -35 -30 -35 -25 0 10 60 88
104 135 15 15 25 30 23 32 -2 3 -33 -25 -68 -61 -34 -36 -68 -65 -74 -65 -6 0
-28 -20 -49 -45 -21 -24 -41 -44 -45 -43 -19 2 -24 -3 -11 -12 8 -5 11 -12 7
-17 -5 -4 -12 -1 -17 7 -11 18 6 51 23 45 8 -4 13 6 14 27 l2 33 -33 -39 c-45
-52 -60 -41 -35 27 l18 52 -27 -31 c-24 -29 -53 -63 -110 -134 -16 -20 -23
-22 -33 -13 -10 10 -7 22 12 58 20 38 22 48 11 65 -17 28 -16 32 23 73 19 20
35 40 35 43 0 13 38 53 44 46 4 -3 5 0 2 8 -4 9 12 34 39 63 25 26 42 47 39
47 -16 0 -62 -36 -89 -70 -32 -41 -58 -60 -48 -34 3 7 10 14 15 14 6 0 8 7 5
14 -4 10 -1 13 9 9 7 -3 14 0 14 6 0 6 -5 11 -12 11 -6 0 -1 11 12 25 23 25
23 25 2 25 -11 0 -32 -14 -46 -32 -18 -23 -26 -28 -26 -16 0 9 6 18 13 21 48
17 -68 22 -541 22 l-536 0 -13 -25 c-7 -14 -27 -59 -44 -100 -18 -41 -45 -102
-60 -134 -16 -33 -29 -63 -29 -68 0 -5 -16 -33 -36 -63 -34 -50 -45 -60 -66
-56 -13 2 -9 -16 5 -31 25 -25 -6 -38 -88 -38 l-75 0 0 40 0 40 -40 0 c-33 0
-40 4 -40 19 0 21 -19 31 -56 31 -18 0 -24 5 -24 21 0 25 -17 59 -42 80 -10 9
-18 24 -18 33 0 9 -4 16 -10 16 -5 0 -10 8 -10 18 0 10 -9 24 -20 32 -11 8
-20 22 -20 32 0 11 -7 18 -20 18 -15 0 -20 7 -20 25 0 21 -5 25 -30 25 -17 0
-30 5 -30 13 0 7 -9 18 -20 25 -11 7 -20 21 -20 32 0 19 -7 20 -150 20 l-150
0 0 -2560z m2163 2486 c4 -10 1 -13 -8 -9 -8 3 -12 9 -9 14 7 12 11 11 17 -5z
m157 -316 c0 -5 -5 -10 -11 -10 -5 0 -7 5 -4 10 3 6 8 10 11 10 2 0 4 -4 4
-10z m-170 -54 c0 -2 -7 -9 -15 -16 -12 -10 -15 -10 -15 4 0 9 7 16 15 16 8 0
15 -2 15 -4z m384 -21 c-4 -8 -8 -15 -10 -15 -2 0 -4 7 -4 15 0 8 4 15 10 15
5 0 7 -7 4 -15z m-2197 -131 c3 -8 1 -20 -4 -25 -7 -7 -12 -2 -15 15 -6 28 9
36 19 10z m-136 -127 c-10 -10 -10 3 0 68 1 11 4 3 6 -19 3 -21 0 -43 -6 -49z
m153 -127 c15 -31 9 -39 -12 -18 -11 11 -17 48 -8 48 3 0 11 -13 20 -30z m39
-10 c3 -11 1 -18 -4 -14 -5 3 -9 12 -9 20 0 20 7 17 13 -6z m1685 -417 c-2
-234 -2 -236 -8 -78 -5 152 -2 315 6 315 2 0 3 -107 2 -237z m54 2 c0 -5 -5
-10 -11 -11 -8 -2 -7 -1 0 3 8 4 7 8 -2 15 -11 8 -11 9 -1 6 8 -2 14 -8 14
-13z m-1420 -354 c-5 -12 -8 -10 -13 9 -10 35 -11 95 -1 104 9 10 22 -92 14
-113z m1355 62 c-3 -10 -5 -2 -5 17 0 19 2 27 5 18 2 -10 2 -26 0 -35z m-1808
-23 c0 -10 -3 -8 -9 5 -12 27 -12 43 0 25 5 -8 9 -22 9 -30z m1402 -750 c-12
-7 -12 -11 -2 -24 9 -10 11 -25 5 -43 l-7 -28 -7 30 c-4 17 -8 48 -9 70 -1 37
0 38 17 22 14 -15 15 -19 3 -27z m-147 -107 c20 -57 20 -63 2 -63 -13 0 -36
67 -36 105 0 28 18 7 34 -42z m176 -28 c0 -8 -2 -15 -4 -15 -2 0 -6 7 -10 15
-3 8 -1 15 4 15 6 0 10 -7 10 -15z m-43 -57 c-3 -7 -5 -2 -5 12 0 14 2 19 5
13 2 -7 2 -19 0 -25z m63 -16 c0 -13 4 -20 10 -17 6 3 17 -1 26 -9 18 -19 27
-19 73 -6 45 13 48 8 17 -23 -14 -14 -24 -32 -23 -39 2 -7 2 -10 0 -5 -10 16
-20 5 -19 -20 1 -35 -17 -42 -26 -11 -3 13 -7 19 -7 13 -1 -5 -6 -3 -11 5 -8
13 -11 12 -23 -3 -12 -17 -14 -17 -27 -3 -10 13 -10 21 -1 39 8 16 8 32 1 57
-5 19 -10 44 -10 55 0 17 2 17 10 5 5 -8 10 -25 10 -38z m-37 -2 c3 -11 1 -18
-4 -14 -5 3 -9 12 -9 20 0 20 7 17 13 -6z m965 -97 c4 -38 0 -39 -52 -10 -59
33 -59 49 0 45 47 -3 49 -4 52 -35z m-903 -63 c3 -5 -1 -10 -10 -10 -9 0 -13
5 -10 10 3 6 8 10 10 10 2 0 7 -4 10 -10z m60 -541 c-3 -4 -14 -53 -25 -109
-10 -57 -22 -106 -26 -109 -3 -3 -4 33 -2 82 3 68 1 87 -10 87 -8 0 -10 5 -6
13 5 6 -8 -1 -27 -16 -18 -15 -42 -30 -51 -34 -10 -3 -18 -10 -18 -15 0 -6 -7
-8 -15 -4 -8 3 -14 0 -12 -7 1 -6 -8 -13 -20 -15 -13 -2 -20 -8 -17 -16 3 -8
-4 -16 -18 -20 -13 -3 -48 -29 -78 -57 -30 -28 -49 -47 -41 -43 9 5 12 3 7 -4
-4 -7 -14 -12 -23 -12 -9 0 -13 -6 -9 -15 3 -8 1 -15 -4 -15 -6 0 -10 5 -10
11 0 17 -24 -13 -43 -53 -10 -21 -22 -38 -27 -38 -5 0 -11 -8 -13 -17 -2 -10
-2 -2 0 17 3 18 11 39 18 45 7 5 14 15 16 21 6 19 70 95 131 157 32 33 56 63
52 68 -3 5 0 9 5 9 6 0 11 3 10 8 -3 17 14 52 25 52 7 0 22 11 33 24 19 21 26
23 64 16 24 -5 51 -11 59 -14 8 -3 26 3 40 13 17 14 27 16 32 8 4 -6 5 -14 3
-18z m729 -278 c31 -34 3 -24 -30 10 -21 23 -23 29 -9 21 11 -5 29 -20 39 -31z
m-1235 -177 c-6 -8 -17 -14 -23 -13 -7 0 -6 2 2 6 6 2 12 11 12 19 0 9 5 12
10 9 8 -5 7 -11 -1 -21z m-125 -35 c-3 -5 -10 -7 -15 -3 -5 3 -7 10 -3 15 3 5
10 7 15 3 5 -3 7 -10 3 -15z"/>
<path d="M1740 1840 c0 -5 5 -10 10 -10 6 0 10 5 10 10 0 6 -4 10 -10 10 -5 0
-10 -4 -10 -10z"/>
<path d="M350 5060 c0 -5 11 -10 25 -10 14 0 25 5 25 10 0 6 -11 10 -25 10
-14 0 -25 -4 -25 -10z"/>
<path d="M2683 4854 l-58 -56 63 52 c34 28 62 54 62 56 0 11 -14 0 -67 -52z"/>
<path d="M570 4870 c0 -5 5 -10 10 -10 6 0 10 5 10 10 0 6 -4 10 -10 10 -5 0
-10 -4 -10 -10z"/>
<path d="M592 4851 c-17 -48 -14 -73 4 -32 8 19 13 42 11 50 -1 9 -8 2 -15
-18z"/>
<path d="M550 4829 c0 -11 5 -17 10 -14 6 3 10 13 10 21 0 8 -4 14 -10 14 -5
0 -10 -9 -10 -21z"/>
<path d="M2690 4823 c0 -22 22 -26 38 -7 16 17 16 17 -1 4 -16 -12 -20 -12
-28 1 -5 9 -9 10 -9 2z"/>
<path d="M2605 4790 c-3 -5 -1 -10 4 -10 6 0 11 5 11 10 0 6 -2 10 -4 10 -3 0
-8 -4 -11 -10z"/>
<path d="M3727 4588 c4 -7 8 -24 9 -38 0 -14 1 -45 3 -70 l2 -45 15 45 c16 51
18 71 5 52 -6 -11 -9 -9 -14 7 -2 11 -1 21 5 23 14 5 -2 38 -19 38 -9 0 -11
-5 -6 -12z"/>
<path d="M3709 4337 c3 -212 3 -221 -15 -207 -16 14 -17 13 -9 -5 16 -39 20
-129 7 -175 -7 -27 -15 -134 -18 -275 -6 -257 -19 -355 -65 -498 -19 -59 -28
-104 -23 -115 4 -9 6 -24 5 -32 -1 -13 28 34 75 120 9 16 14 19 15 10 1 -21
25 66 49 180 7 30 27 96 46 146 39 107 48 157 70 407 16 189 13 404 -7 391 -5
-3 -6 10 -2 28 3 18 3 31 0 28 -7 -6 -33 -173 -48 -300 -18 -158 -24 -255 -24
-367 0 -61 -3 -107 -6 -101 -3 5 -9 -13 -13 -41 -4 -27 -10 -53 -15 -55 -20
-12 -29 333 -11 423 5 30 8 57 5 59 -3 3 -5 0 -5 -6 0 -7 -5 -12 -11 -12 -7 0
-8 7 -4 18 30 77 44 346 24 487 -19 141 -24 116 -20 -108z m118 -139 c-3 -8
-6 -5 -6 6 -1 11 2 17 5 13 3 -3 4 -12 1 -19z m-30 -520 c-3 -8 -6 -5 -6 6 -1
11 2 17 5 13 3 -3 4 -12 1 -19z m-16 -65 c-9 -16 -10 -16 -11 -1 0 9 3 25 7
35 7 16 8 17 11 1 2 -10 -1 -25 -7 -35z"/>
<path d="M3801 4504 c0 -11 3 -14 6 -6 3 7 2 16 -1 19 -3 4 -6 -2 -5 -13z"/>
<path d="M3800 4470 c0 -5 5 -10 10 -10 6 0 10 5 10 10 0 6 -4 10 -10 10 -5 0
-10 -4 -10 -10z"/>
<path d="M3762 4440 c0 -14 2 -19 5 -12 2 6 2 18 0 25 -3 6 -5 1 -5 -13z"/>
<path d="M3771 4274 c0 -11 3 -14 6 -6 3 7 2 16 -1 19 -3 4 -6 -2 -5 -13z"/>
<path d="M3220 4185 c-88 -13 -152 -34 -165 -55 -6 -9 -9 -9 -15 0 -5 8 -11 8
-21 -3 -8 -7 -20 -12 -27 -9 -6 2 -12 -4 -12 -13 0 -9 -7 -15 -16 -13 -11 2
-20 -7 -26 -25 -9 -24 -5 -33 26 -71 l35 -44 -19 -53 -19 -54 22 -10 c12 -5
28 -15 35 -22 7 -7 20 -9 28 -6 14 5 15 3 4 -17 -17 -33 -1 -43 75 -48 67 -4
70 -3 66 41 -3 25 11 21 39 -13 36 -44 87 -42 135 5 19 20 35 46 35 58 0 21 0
21 25 -4 15 -14 27 -36 28 -48 1 -18 6 -21 22 -15 11 3 30 6 43 6 12 0 22 4
22 9 0 5 11 7 25 3 35 -9 32 11 -7 47 -43 39 -100 66 -184 87 -49 12 -70 22
-72 35 -3 15 5 17 55 17 66 0 137 -29 193 -78 l35 -31 8 24 c5 14 13 25 18 25
19 0 8 41 -21 74 -34 39 -85 58 -198 76 -46 8 -72 16 -69 23 2 6 37 26 78 44
41 18 65 33 54 34 -17 1 -16 2 5 10 22 7 20 8 -12 6 -21 -2 -34 1 -31 7 4 5
-11 6 -38 2 -31 -4 -39 -3 -29 4 20 13 -19 12 -130 -5z m130 -315 c0 -5 -4
-10 -9 -10 -6 0 -13 5 -16 10 -3 6 1 10 9 10 9 0 16 -4 16 -10z"/>
<path d="M3657 4159 c7 -7 15 -10 18 -7 3 3 -2 9 -12 12 -14 6 -15 5 -6 -5z"/>
<path d="M3060 3708 l-34 -10 24 -18 c69 -53 119 -71 208 -77 70 -5 94 -2 120
11 18 9 32 19 32 21 0 16 -45 53 -59 48 -12 -4 -11 -2 3 9 17 14 12 15 -59 21
-105 9 -193 7 -235 -5z"/>
<path d="M3702 3160 c0 -19 2 -27 5 -17 2 9 2 25 0 35 -3 9 -5 1 -5 -18z"/>
<path d="M3672 3110 c0 -19 2 -27 5 -17 2 9 2 25 0 35 -3 9 -5 1 -5 -18z"/>
<path d="M4980 2560 c-13 -8 -12 -10 3 -10 9 0 17 5 17 10 0 12 -1 12 -20 0z"/>
<path d="M4972 2415 c-6 -8 -19 -12 -27 -9 -8 4 -15 1 -15 -6 0 -6 10 -10 23
-8 14 2 22 -2 22 -12 0 -10 -8 -14 -22 -12 -13 2 -23 -2 -23 -7 0 -6 -7 -11
-15 -11 -8 0 -15 -4 -15 -10 0 -5 -7 -10 -16 -10 -11 0 -14 -5 -10 -16 3 -9 6
-20 6 -25 0 -5 14 -9 30 -9 23 0 30 -5 30 -19 0 -11 9 -23 20 -26 29 -9 24
-27 -7 -23 -19 2 -27 9 -28 25 -2 33 -15 41 -31 19 -14 -19 -14 -19 -14 1 0
17 -7 22 -40 25 -40 3 -63 -2 -61 -16 4 -32 0 -38 -24 -32 -17 4 -25 2 -25 -6
0 -9 -3 -8 -10 2 -7 11 -10 4 -10 -27 0 -39 -2 -43 -25 -43 -18 0 -25 -5 -25
-20 0 -13 -7 -20 -19 -20 -11 0 -21 -6 -23 -12 -6 -17 -38 14 -38 36 0 10 -6
13 -15 9 -9 -3 -24 2 -34 11 -17 16 -19 16 -23 -2 -4 -15 -1 -18 13 -15 14 4
18 1 13 -10 -3 -9 -13 -16 -22 -16 -9 -1 -39 -4 -67 -9 l-50 -8 48 -5 c26 -2
47 -1 47 3 0 5 4 8 9 8 6 0 3 -12 -5 -27 -20 -39 -18 -43 20 -43 29 0 34 -4
39 -27 7 -39 -3 -93 -18 -93 -8 0 -15 6 -17 12 -3 9 -9 8 -21 -4 -21 -21 -21
-35 -1 -55 13 -13 17 -14 24 -3 5 8 17 10 32 7 14 -4 39 -2 56 3 43 12 40 4
-5 -15 -21 -9 -48 -13 -61 -10 -13 3 -21 2 -18 -3 3 -5 -10 -8 -29 -6 -22 1
-35 -3 -39 -12 -7 -19 -33 -18 -45 3 -5 10 -12 16 -14 13 -7 -7 14 -33 38 -46
16 -9 26 -7 49 9 16 12 37 22 45 23 9 1 36 5 61 9 43 6 47 4 88 -34 33 -32 42
-47 42 -73 0 -41 -10 -56 -33 -52 -10 1 -23 -6 -30 -17 -6 -10 -22 -19 -34
-19 -20 0 -22 4 -20 58 2 50 -1 58 -15 57 -10 -1 -21 -4 -24 -8 -4 -4 -12 -3
-18 2 -20 15 -60 20 -72 10 -13 -11 -8 -42 6 -34 4 3 10 -2 14 -10 3 -8 12
-15 20 -15 15 0 29 -27 20 -41 -11 -18 -50 -9 -60 14 -6 12 -9 17 -8 12 1 -6
-7 -11 -17 -11 -11 0 -19 5 -20 11 0 5 -4 1 -9 -10 -8 -18 -9 -19 -9 -1 -1 12
-6 16 -17 12 -9 -3 -28 -6 -42 -7 -15 0 -21 -3 -14 -6 6 -2 12 -8 12 -13 0
-13 -42 -20 -59 -9 -13 8 -12 9 4 4 16 -4 21 0 23 20 1 16 -3 25 -13 25 -8 0
-15 -6 -15 -14 0 -8 -6 -16 -12 -19 -18 -6 9 -37 32 -37 9 0 29 -12 43 -26 21
-21 37 -26 77 -27 38 -1 50 -4 50 -16 0 -14 -1 -14 -10 -1 -9 13 -10 13 -10 0
1 -27 27 -50 56 -50 17 0 24 -3 17 -8 -8 -5 -4 -11 12 -18 20 -10 27 -8 41 7
9 11 21 19 25 19 14 0 59 -43 59 -56 0 -16 30 -27 30 -11 0 7 5 4 11 -5 5 -10
16 -18 24 -18 7 0 16 -8 20 -19 4 -12 13 -17 30 -15 27 2 32 -5 13 -24 -16
-16 3 -15 24 2 10 7 15 16 11 19 -3 4 1 7 11 7 10 0 14 5 11 11 -10 15 30 49
58 49 14 0 30 -7 37 -15 18 -21 40 -1 40 36 0 36 90 132 115 123 13 -5 15 39
15 380 l0 386 -49 0 c-40 0 -50 4 -54 19 -3 14 -1 18 9 14 8 -3 14 1 14 11 0
20 -50 21 -68 1z m18 -75 c0 -5 -7 -10 -15 -10 -8 0 -15 5 -15 10 0 6 7 10 15
10 8 0 15 -4 15 -10z m-46 -175 c-7 -16 -39 -20 -48 -6 -7 10 9 19 36 20 12 1
15 -4 12 -14z m-374 -40 c0 -8 -4 -15 -10 -15 -5 0 -10 7 -10 15 0 8 5 15 10
15 6 0 10 -7 10 -15z m20 -173 c0 -10 5 -23 12 -30 9 -9 7 -12 -9 -12 -27 0
-34 10 -26 38 7 27 23 29 23 4z m32 -55 c-19 -6 -40 -6 -52 -1 -15 7 -7 9 32
10 50 0 51 0 20 -9z m-147 -77 c-3 -5 -11 -10 -16 -10 -6 0 -7 5 -4 10 3 6 11
10 16 10 6 0 7 -4 4 -10z m25 -54 c0 -2 -7 -7 -16 -10 -8 -3 -12 -2 -9 4 6 10
25 14 25 6z m73 -261 c-3 -9 -8 -14 -10 -11 -3 3 -2 9 2 15 9 16 15 13 8 -4z"/>
<path d="M4890 2380 c0 -5 7 -10 15 -10 8 0 15 5 15 10 0 6 -7 10 -15 10 -8 0
-15 -4 -15 -10z"/>
<path d="M4720 2320 c0 -5 7 -10 15 -10 8 0 15 5 15 10 0 6 -7 10 -15 10 -8 0
-15 -4 -15 -10z"/>
<path d="M4730 2280 c0 -5 5 -10 10 -10 6 0 10 5 10 10 0 6 -4 10 -10 10 -5 0
-10 -4 -10 -10z"/>
<path d="M4532 2220 c0 -19 2 -27 5 -17 2 9 2 25 0 35 -3 9 -5 1 -5 -18z"/>
<path d="M3646 2204 c-4 -9 -4 -19 -1 -22 2 -3 7 3 11 12 4 9 4 19 1 22 -2 3
-7 -3 -11 -12z"/>
<path d="M4445 2210 c3 -5 11 -10 16 -10 6 0 7 5 4 10 -3 6 -11 10 -16 10 -6
0 -7 -4 -4 -10z"/>
<path d="M3650 2161 c0 -3 4 -12 9 -19 6 -11 9 -9 13 5 3 12 0 20 -8 20 -8 0
-14 -3 -14 -6z"/>
<path d="M4437 2146 c-4 -10 -1 -13 9 -9 7 3 14 9 14 14 0 14 -17 10 -23 -5z"/>
<path d="M3681 2124 c0 -11 3 -14 6 -6 3 7 2 16 -1 19 -3 4 -6 -2 -5 -13z"/>
<path d="M3680 2085 c-11 -13 -10 -14 4 -9 9 3 16 10 16 15 0 13 -6 11 -20 -6z"/>
<path d="M4455 2080 c3 -5 10 -10 16 -10 5 0 9 5 9 10 0 6 -7 10 -16 10 -8 0
-12 -4 -9 -10z"/>
<path d="M3700 2046 c0 -9 -4 -14 -10 -11 -5 3 -10 2 -10 -4 0 -5 4 -12 9 -16
11 -6 26 33 17 42 -3 4 -6 -1 -6 -11z"/>
<path d="M4410 1790 c-12 -8 -10 -10 8 -10 13 0 20 4 17 10 -7 12 -6 12 -25 0z"/>
<path d="M4528 1783 c7 -3 16 -2 19 1 4 3 -2 6 -13 5 -11 0 -14 -3 -6 -6z"/>
<path d="M4390 1766 c0 -13 29 -68 30 -56 0 12 2 13 9 1 7 -11 11 -10 19 5 8
14 6 24 -5 39 -15 19 -15 19 -10 -5 l6 -25 -16 23 c-13 19 -33 30 -33 18z"/>
<path d="M4240 1670 c-13 -8 -12 -10 3 -10 9 0 17 5 17 10 0 12 -1 12 -20 0z"/>
<path d="M4270 1520 c0 -5 5 -10 11 -10 5 0 7 5 4 10 -3 6 -8 10 -11 10 -2 0
-4 -4 -4 -10z"/>
<path d="M3900 1441 c0 -25 5 -41 15 -45 8 -3 15 -1 15 4 0 6 6 10 14 10 8 0
18 4 21 10 4 6 -1 7 -12 4 -16 -5 -16 -4 1 10 11 9 16 16 10 16 -14 0 -30 -13
-37 -30 -5 -11 -6 -9 -6 5 2 39 -1 55 -11 55 -5 0 -10 -18 -10 -39z"/>
<path d="M4315 1420 c3 -5 -4 -10 -15 -10 -16 0 -20 -4 -16 -16 3 -9 6 -24 6
-35 0 -10 5 -19 10 -19 6 0 10 7 10 16 0 15 2 15 24 0 15 -10 27 -12 31 -6 6
9 -1 14 -17 11 -5 0 -8 9 -9 22 0 18 -2 19 -7 5 -5 -12 -11 -15 -21 -8 -12 7
-11 12 10 29 20 17 21 20 6 21 -10 0 -15 -4 -12 -10z"/>
<path d="M4260 1362 c-10 -11 -11 -17 -2 -20 7 -2 12 -10 12 -18 0 -9 -5 -12
-12 -8 -8 5 -9 -2 -5 -24 4 -17 2 -34 -2 -37 -5 -3 -12 -24 -16 -48 -4 -23
-13 -51 -19 -62 -7 -11 -15 -44 -18 -73 -3 -29 -12 -60 -20 -70 -8 -9 -20 -37
-27 -61 -7 -25 -23 -59 -36 -75 -13 -17 -26 -48 -30 -68 -4 -21 -12 -38 -17
-38 -6 0 -7 -7 -4 -16 7 -19 -31 -87 -45 -78 -5 3 -9 -2 -9 -10 0 -9 -6 -16
-14 -16 -9 0 -12 -9 -9 -27 l5 -28 -21 25 c-18 22 -26 21 -22 -3 0 -4 -8 -7
-19 -7 -10 0 -35 -8 -55 -17 -55 -26 -61 -84 -10 -103 14 -5 25 -16 25 -24 0
-20 -17 -29 -24 -14 -3 10 -8 9 -18 -2 -14 -17 -92 -44 -82 -29 3 5 12 9 20 9
8 0 14 5 14 11 0 6 -9 8 -20 4 -21 -7 -28 10 -7 18 9 4 8 8 -3 16 -13 10 -13
11 0 11 12 0 12 2 2 9 -11 6 -11 17 -3 45 l10 38 -37 -5 c-20 -2 -29 -2 -19 0
9 2 17 9 17 14 0 22 -72 0 -107 -33 -28 -27 -29 -38 -2 -38 11 0 29 -5 40 -11
16 -8 18 -13 8 -25 -6 -8 -17 -14 -25 -14 -18 0 -41 -77 -28 -97 16 -25 81
-43 115 -31 17 6 28 15 26 22 -5 15 -47 21 -47 6 0 -6 -4 -8 -10 -5 -5 3 -10
17 -10 31 0 13 5 24 10 24 6 0 10 -4 10 -10 0 -5 7 -10 16 -10 17 0 74 -31 74
-40 0 -3 -10 -10 -22 -15 -13 -6 -23 -19 -23 -30 0 -11 -12 -25 -30 -35 -16
-8 -31 -18 -33 -22 -2 -5 -19 -8 -39 -8 -32 0 -34 2 -30 27 2 16 2 22 0 15 -4
-10 -8 -10 -19 -1 -17 14 -18 5 -2 -24 10 -20 10 -21 -5 -8 -13 10 -17 10 -17
1 0 -7 -6 -10 -14 -7 -8 3 -22 -2 -32 -11 -12 -11 -36 -17 -68 -17 l-49 0 -4
-60 c-2 -33 -5 -80 -6 -105 l-2 -45 853 -3 852 -2 0 482 c0 375 -3 479 -12
470 -16 -16 -69 -16 -67 1 3 26 -2 36 -21 42 -13 4 -20 16 -21 33 0 15 -3 20
-6 12 -10 -28 -36 -40 -86 -40 -48 0 -49 1 -34 18 10 10 17 34 17 53 -1 27 -3
31 -11 17 -11 -19 -33 -14 -64 14 -21 20 -42 18 -37 -2 2 -11 0 -11 -11 -2
-11 10 -17 9 -28 -4 -11 -13 -10 -15 4 -12 12 2 25 -10 39 -34 22 -38 19 -64
-8 -75 -17 -6 -134 27 -134 39 0 3 12 15 26 25 25 18 25 20 9 36 -9 9 -14 25
-11 35 7 20 -34 72 -57 72 -8 0 -17 6 -20 13 -3 8 -7 7 -12 -5 -6 -15 -8 -15
-26 3 -10 10 -30 19 -44 19 -14 0 -25 4 -25 9 0 5 -10 11 -22 13 -16 2 -26 13
-33 36 -5 17 -15 32 -22 32 -7 0 -13 5 -13 11 0 5 5 7 10 4 6 -3 10 -1 10 5 0
7 -8 9 -21 5 -20 -7 -20 -6 -2 14 9 12 19 21 20 21 1 0 7 -18 13 -41 6 -23 13
-39 16 -36 10 9 -22 80 -37 83 -18 2 -44 -42 -29 -51 8 -5 40 -63 40 -73 0 -9
-55 10 -62 21 -5 7 -6 24 -3 38 8 36 -19 59 -35 29 -6 -11 -8 -25 -5 -30 3 -5
1 -18 -4 -27 -12 -21 -12 -23 -16 45 -4 63 -5 65 -25 44z m686 -448 c18 -15
18 -15 -6 -10 -15 3 -31 -1 -42 -11 -23 -20 -24 -6 -1 19 20 22 24 22 49 2z
m-718 -26 c19 -19 14 -28 -13 -28 -27 0 -28 1 -19 24 7 19 16 20 32 4z m62
-18 c0 -5 -9 -10 -20 -10 -11 0 -20 5 -20 10 0 6 9 10 20 10 11 0 20 -4 20
-10z m677 -12 c-3 -8 -6 -5 -6 6 -1 11 2 17 5 13 3 -3 4 -12 1 -19z m-97 2 c0
-5 -4 -10 -10 -10 -5 0 -10 5 -10 10 0 6 5 10 10 10 6 0 10 -4 10 -10z m167
-35 c-7 -16 -37 -21 -37 -5 0 10 32 31 39 25 2 -2 1 -11 -2 -20z m-717 -34 c0
-10 -10 -28 -21 -40 -21 -22 -21 -27 -10 -103 6 -44 8 -84 5 -89 -3 -5 6 -24
20 -42 25 -32 37 -85 17 -72 -5 3 -12 1 -16 -5 -13 -21 -43 -8 -68 29 -30 45
-90 85 -131 87 -15 1 -40 13 -53 27 -34 33 -25 71 22 99 19 11 36 29 36 39 2
31 3 33 33 62 24 24 32 27 51 19 17 -8 31 -6 56 7 37 18 59 11 59 -18z m-396
-276 c-4 -8 -11 -15 -16 -15 -6 0 -5 6 2 15 7 8 14 15 16 15 2 0 1 -7 -2 -15z
m151 -35 c-3 -5 -11 -10 -16 -10 -6 0 -7 5 -4 10 3 6 11 10 16 10 6 0 7 -4 4
-10z m-425 -340 c-19 -13 -30 -13 -30 0 0 6 10 10 23 10 18 0 19 -2 7 -10z
m-124 -27 c-10 -10 -19 5 -10 18 6 11 8 11 12 0 2 -7 1 -15 -2 -18z"/>
<path d="M4194 765 c12 -38 26 -46 26 -15 0 11 -4 20 -10 20 -5 0 -10 7 -10
15 0 8 -4 15 -9 15 -4 0 -3 -16 3 -35z"/>
<path d="M3945 1360 c-11 -4 -26 -5 -32 -3 -8 3 -13 -3 -13 -17 0 -18 3 -20
14 -11 8 7 27 16 42 20 16 4 24 10 19 13 -6 3 -19 2 -30 -2z"/>
<path d="M5068 1343 c6 -2 18 -2 25 0 6 3 1 5 -13 5 -14 0 -19 -2 -12 -5z"/>
<path d="M3958 1333 c7 -3 16 -2 19 1 4 3 -2 6 -13 5 -11 0 -14 -3 -6 -6z"/>
<path d="M3920 1319 c0 -5 5 -7 10 -4 6 3 10 8 10 11 0 2 -4 4 -10 4 -5 0 -10
-5 -10 -11z"/>
<path d="M4116 1264 c-7 -19 -8 -17 21 -33 31 -16 37 2 9 28 -21 20 -24 20
-30 5z"/>
<path d="M4160 1260 c0 -5 7 -10 16 -10 8 0 12 5 9 10 -3 6 -10 10 -16 10 -5
0 -9 -4 -9 -10z"/>
<path d="M3884 1198 c-2 -87 -10 -156 -21 -170 -17 -21 -24 -106 -10 -111 9
-4 9 -6 0 -6 -7 -1 -13 -6 -13 -13 0 -6 9 -3 20 7 11 10 20 26 20 35 0 11 11
20 29 23 43 9 51 44 17 73 -29 26 -33 46 -11 64 8 7 15 23 15 36 0 15 6 24 16
24 8 0 12 5 9 11 -4 6 -13 8 -21 5 -18 -7 -18 5 1 30 18 24 19 35 1 28 -8 -3
-17 -1 -21 5 -16 27 -30 9 -31 -41z"/>
<path d="M4796 1144 c-3 -8 -2 -12 4 -9 6 3 10 -1 10 -9 0 -9 5 -16 10 -16 14
0 12 19 -4 35 -12 12 -15 12 -20 -1z"/>
<path d="M3983 754 c-28 -32 -29 -50 -3 -64 24 -13 40 -6 40 17 0 13 -2 14
-17 2 -11 -9 -14 -10 -9 -2 6 11 17 73 13 73 -1 0 -12 -12 -24 -26z"/>
<path d="M3750 695 c-16 -19 0 -19 26 0 16 12 16 14 3 15 -9 0 -22 -7 -29 -15z"/>
<path d="M3720 622 l-22 -18 51 -14 c27 -7 48 -17 45 -22 -8 -12 9 -9 29 6 18
14 23 36 8 36 -5 0 -11 -5 -13 -11 -5 -16 -58 7 -58 26 0 20 -13 19 -40 -3z"/>
</g>
</svg>
